<mxfile host="65bd71144e">
    <diagram id="KOW5SECiHZH8HeKndToQ" name="Page-1">
        <mxGraphModel dx="760" dy="607" grid="1" gridSize="10" guides="1" tooltips="1" connect="1" arrows="1" fold="1" page="1" pageScale="1" pageWidth="827" pageHeight="1169" math="0" shadow="0">
            <root>
                <mxCell id="0"/>
                <mxCell id="1" parent="0"/>
                <mxCell id="2" value="" style="shape=table;startSize=0;container=1;collapsible=0;childLayout=tableLayout;" parent="1" vertex="1">
                    <mxGeometry x="70" y="270" width="630" height="540" as="geometry"/>
                </mxCell>
                <mxCell id="3" value="" style="shape=partialRectangle;collapsible=0;dropTarget=0;pointerEvents=0;fillColor=none;top=0;left=0;bottom=0;right=0;points=[[0,0.5],[1,0.5]];portConstraint=eastwest;" parent="2" vertex="1">
                    <mxGeometry width="630" height="48" as="geometry"/>
                </mxCell>
                <mxCell id="4" value="Empleado&amp;nbsp;" style="shape=partialRectangle;html=1;whiteSpace=wrap;connectable=0;overflow=hidden;fillColor=none;top=0;left=0;bottom=0;right=0;pointerEvents=1;" parent="3" vertex="1">
                    <mxGeometry width="210" height="48" as="geometry">
                        <mxRectangle width="210" height="48" as="alternateBounds"/>
                    </mxGeometry>
                </mxCell>
                <mxCell id="5" value="interfaz de usuario" style="shape=partialRectangle;html=1;whiteSpace=wrap;connectable=0;overflow=hidden;fillColor=none;top=0;left=0;bottom=0;right=0;pointerEvents=1;" parent="3" vertex="1">
                    <mxGeometry x="210" width="210" height="48" as="geometry">
                        <mxRectangle width="210" height="48" as="alternateBounds"/>
                    </mxGeometry>
                </mxCell>
                <mxCell id="6" value="logica de negocio" style="shape=partialRectangle;html=1;whiteSpace=wrap;connectable=0;overflow=hidden;fillColor=none;top=0;left=0;bottom=0;right=0;pointerEvents=1;" parent="3" vertex="1">
                    <mxGeometry x="420" width="210" height="48" as="geometry">
                        <mxRectangle width="210" height="48" as="alternateBounds"/>
                    </mxGeometry>
                </mxCell>
                <mxCell id="7" value="" style="shape=partialRectangle;collapsible=0;dropTarget=0;pointerEvents=0;fillColor=none;top=0;left=0;bottom=0;right=0;points=[[0,0.5],[1,0.5]];portConstraint=eastwest;" parent="2" vertex="1">
                    <mxGeometry y="48" width="630" height="492" as="geometry"/>
                </mxCell>
                <mxCell id="8" value="" style="shape=partialRectangle;html=1;whiteSpace=wrap;connectable=0;overflow=hidden;fillColor=none;top=0;left=0;bottom=0;right=0;pointerEvents=1;" parent="7" vertex="1">
                    <mxGeometry width="210" height="492" as="geometry">
                        <mxRectangle width="210" height="492" as="alternateBounds"/>
                    </mxGeometry>
                </mxCell>
                <mxCell id="9" value="" style="shape=partialRectangle;html=1;whiteSpace=wrap;connectable=0;overflow=hidden;fillColor=none;top=0;left=0;bottom=0;right=0;pointerEvents=1;" parent="7" vertex="1">
                    <mxGeometry x="210" width="210" height="492" as="geometry">
                        <mxRectangle width="210" height="492" as="alternateBounds"/>
                    </mxGeometry>
                </mxCell>
                <mxCell id="10" value="" style="shape=partialRectangle;html=1;whiteSpace=wrap;connectable=0;overflow=hidden;fillColor=none;top=0;left=0;bottom=0;right=0;pointerEvents=1;" parent="7" vertex="1">
                    <mxGeometry x="420" width="210" height="492" as="geometry">
                        <mxRectangle width="210" height="492" as="alternateBounds"/>
                    </mxGeometry>
                </mxCell>
                <mxCell id="11" value="Autenticacion recerva cliente&amp;nbsp;" style="rounded=1;whiteSpace=wrap;html=1;fillColor=#FFFFFF;fontColor=#000000;" parent="1" vertex="1">
                    <mxGeometry x="330" y="315" width="110" height="40" as="geometry"/>
                </mxCell>
                <mxCell id="14" style="edgeStyle=none;html=1;" parent="1" source="15" target="11" edge="1">
                    <mxGeometry relative="1" as="geometry"/>
                </mxCell>
                <mxCell id="15" value="&lt;span style=&quot;color: rgb(0 , 0 , 0)&quot;&gt;Ingresa consultar&lt;br&gt;reserva&amp;nbsp;&lt;/span&gt;" style="html=1;align=center;verticalAlign=middle;rounded=1;absoluteArcSize=1;arcSize=10;dashed=0;fillColor=#FFFFFF;" parent="1" vertex="1">
                    <mxGeometry x="130" y="320" width="110" height="50" as="geometry"/>
                </mxCell>
                <mxCell id="16" value="" style="ellipse;html=1;fillColor=#FFFFFF;" parent="1" vertex="1">
                    <mxGeometry x="80" y="320" width="30" height="30" as="geometry"/>
                </mxCell>
                <mxCell id="17" value="" style="endArrow=open;html=1;rounded=0;align=center;verticalAlign=top;endFill=0;labelBackgroundColor=none;endSize=6;" parent="1" source="16" edge="1">
                    <mxGeometry relative="1" as="geometry">
                        <mxPoint x="140" y="335" as="targetPoint"/>
                    </mxGeometry>
                </mxCell>
                <mxCell id="18" style="edgeStyle=none;html=1;strokeColor=#009900;entryX=0;entryY=0.5;entryDx=0;entryDy=0;exitX=1;exitY=0.5;exitDx=0;exitDy=0;" parent="1" source="20" target="43" edge="1">
                    <mxGeometry relative="1" as="geometry">
                        <mxPoint x="560" y="350" as="targetPoint"/>
                        <Array as="points">
                            <mxPoint x="480" y="406"/>
                        </Array>
                    </mxGeometry>
                </mxCell>
                <mxCell id="19" value="SI" style="edgeLabel;html=1;align=center;verticalAlign=middle;resizable=0;points=[];" parent="18" vertex="1" connectable="0">
                    <mxGeometry x="-0.893" y="2" relative="1" as="geometry">
                        <mxPoint x="17" y="2" as="offset"/>
                    </mxGeometry>
                </mxCell>
                <mxCell id="20" value="&lt;font color=&quot;#000000&quot;&gt;Existe&lt;/font&gt;" style="rhombus;whiteSpace=wrap;html=1;fillColor=#ffffc0;strokeColor=#ff0000;" parent="1" vertex="1">
                    <mxGeometry x="345" y="385.5" width="80" height="40" as="geometry"/>
                </mxCell>
                <mxCell id="21" value="NO" style="edgeStyle=orthogonalEdgeStyle;html=1;align=left;verticalAlign=top;endArrow=open;endSize=8;strokeColor=#ff0000;entryX=0.75;entryY=0.5;entryDx=0;entryDy=0;entryPerimeter=0;" parent="1" source="20" target="41" edge="1">
                    <mxGeometry x="-0.8009" relative="1" as="geometry">
                        <mxPoint x="385" y="460.0000000000001" as="targetPoint"/>
                        <Array as="points">
                            <mxPoint x="250" y="406"/>
                            <mxPoint x="250" y="572"/>
                        </Array>
                        <mxPoint as="offset"/>
                    </mxGeometry>
                </mxCell>
                <mxCell id="22" value="" style="endArrow=classic;html=1;entryX=0.5;entryY=0;entryDx=0;entryDy=0;exitX=0.494;exitY=1.073;exitDx=0;exitDy=0;exitPerimeter=0;" parent="1" source="11" target="20" edge="1">
                    <mxGeometry width="50" height="50" relative="1" as="geometry">
                        <mxPoint x="300" y="420" as="sourcePoint"/>
                        <mxPoint x="350" y="370" as="targetPoint"/>
                    </mxGeometry>
                </mxCell>
                <mxCell id="23" value="" style="ellipse;html=1;shape=endState;fillColor=#000000;strokeColor=#ff0000;" parent="1" vertex="1">
                    <mxGeometry x="90" y="582" width="30" height="30" as="geometry"/>
                </mxCell>
                <mxCell id="24" value="" style="edgeStyle=none;html=1;" parent="1" source="25" target="3" edge="1">
                    <mxGeometry relative="1" as="geometry"/>
                </mxCell>
                <mxCell id="25" value="ACTUALIZAR RECERVA&amp;nbsp;" style="text;html=1;resizable=0;autosize=1;align=center;verticalAlign=middle;points=[];rounded=0;fillColor=#008a00;fontColor=#ffffff;strokeColor=#005700;" parent="1" vertex="1">
                    <mxGeometry x="310" y="220" width="150" height="20" as="geometry"/>
                </mxCell>
                <mxCell id="62" style="edgeStyle=none;html=1;entryX=0.25;entryY=0.5;entryDx=0;entryDy=0;entryPerimeter=0;" parent="1" source="27" target="41" edge="1">
                    <mxGeometry relative="1" as="geometry">
                        <Array as="points">
                            <mxPoint x="260" y="680"/>
                            <mxPoint x="260" y="622"/>
                        </Array>
                    </mxGeometry>
                </mxCell>
                <mxCell id="27" value="Muestra nuevos datos de reserva" style="whiteSpace=wrap;html=1;fillColor=#FFFFFF;fontColor=#000000;rounded=1;" parent="1" vertex="1">
                    <mxGeometry x="320" y="651.56" width="130" height="50" as="geometry"/>
                </mxCell>
                <mxCell id="47" style="edgeStyle=none;html=1;entryX=0.5;entryY=0;entryDx=0;entryDy=0;" parent="1" source="31" target="39" edge="1">
                    <mxGeometry relative="1" as="geometry"/>
                </mxCell>
                <mxCell id="31" value="Muestra datos de entrada&amp;nbsp;" style="whiteSpace=wrap;html=1;fillColor=#FFFFFF;fontColor=#000000;rounded=1;" parent="1" vertex="1">
                    <mxGeometry x="325" y="460" width="120" height="45" as="geometry"/>
                </mxCell>
                <mxCell id="49" style="edgeStyle=none;html=1;entryX=0;entryY=0.5;entryDx=0;entryDy=0;" parent="1" source="39" target="51" edge="1">
                    <mxGeometry relative="1" as="geometry">
                        <mxPoint x="540" y="475" as="targetPoint"/>
                        <Array as="points">
                            <mxPoint x="500" y="560"/>
                            <mxPoint x="500" y="470"/>
                        </Array>
                    </mxGeometry>
                </mxCell>
                <mxCell id="39" value="Modifica datos de entrada&amp;nbsp;" style="whiteSpace=wrap;html=1;fillColor=#FFFFFF;fontColor=#000000;rounded=1;" parent="1" vertex="1">
                    <mxGeometry x="325" y="537" width="120" height="45" as="geometry"/>
                </mxCell>
                <mxCell id="41" value="" style="shape=line;html=1;strokeWidth=6;strokeColor=#ff0000;rotation=-90;" parent="1" vertex="1">
                    <mxGeometry x="120" y="592" width="100" height="10" as="geometry"/>
                </mxCell>
                <mxCell id="42" value="" style="edgeStyle=orthogonalEdgeStyle;html=1;verticalAlign=bottom;endArrow=open;endSize=8;strokeColor=#ff0000;entryX=1;entryY=0.5;entryDx=0;entryDy=0;" parent="1" source="41" target="23" edge="1">
                    <mxGeometry relative="1" as="geometry">
                        <mxPoint x="240" y="615" as="targetPoint"/>
                    </mxGeometry>
                </mxCell>
                <mxCell id="60" style="edgeStyle=none;html=1;entryX=0.5;entryY=0;entryDx=0;entryDy=0;" parent="1" source="43" target="31" edge="1">
                    <mxGeometry relative="1" as="geometry">
                        <Array as="points">
                            <mxPoint x="600" y="430"/>
                            <mxPoint x="385" y="430"/>
                        </Array>
                    </mxGeometry>
                </mxCell>
                <mxCell id="43" value="Consulta datos de entrada almacenados&amp;nbsp;" style="whiteSpace=wrap;html=1;fillColor=#FFFFFF;fontColor=#000000;rounded=1;" parent="1" vertex="1">
                    <mxGeometry x="540" y="340.5" width="120" height="45" as="geometry"/>
                </mxCell>
                <mxCell id="50" style="edgeStyle=none;html=1;" parent="1" source="51" target="54" edge="1">
                    <mxGeometry relative="1" as="geometry"/>
                </mxCell>
                <mxCell id="51" value="Valida datos de entrada" style="rounded=1;whiteSpace=wrap;html=1;fillColor=#FFFFFF;fontColor=#000000;" parent="1" vertex="1">
                    <mxGeometry x="545" y="450" width="110" height="40" as="geometry"/>
                </mxCell>
                <mxCell id="52" style="edgeStyle=none;html=1;entryX=0.303;entryY=0.024;entryDx=0;entryDy=0;strokeColor=#00CC00;entryPerimeter=0;" parent="1" source="54" target="58" edge="1">
                    <mxGeometry relative="1" as="geometry">
                        <mxPoint x="605" y="677" as="targetPoint"/>
                    </mxGeometry>
                </mxCell>
                <mxCell id="53" style="edgeStyle=none;html=1;entryX=1;entryY=0.5;entryDx=0;entryDy=0;strokeColor=#FF0000;fillColor=#e51400;" parent="1" source="54" target="67" edge="1">
                    <mxGeometry relative="1" as="geometry">
                        <Array as="points">
                            <mxPoint x="510" y="550"/>
                            <mxPoint x="510" y="615"/>
                        </Array>
                        <mxPoint x="430" y="632.5" as="targetPoint"/>
                    </mxGeometry>
                </mxCell>
                <mxCell id="54" value="&lt;font color=&quot;#000000&quot;&gt;Exitoso&lt;/font&gt;" style="rhombus;whiteSpace=wrap;html=1;fillColor=#ffffc0;strokeColor=#ff0000;" parent="1" vertex="1">
                    <mxGeometry x="560" y="530" width="80" height="40" as="geometry"/>
                </mxCell>
                <mxCell id="55" value="SI" style="edgeLabel;html=1;align=center;verticalAlign=middle;resizable=0;points=[];" parent="1" vertex="1" connectable="0">
                    <mxGeometry x="479.99785050889" y="480.0028069071602" as="geometry">
                        <mxPoint x="129" y="110" as="offset"/>
                    </mxGeometry>
                </mxCell>
                <mxCell id="57" value="NO" style="edgeLabel;html=1;align=center;verticalAlign=middle;resizable=0;points=[];" parent="1" vertex="1" connectable="0">
                    <mxGeometry x="413.99785050889" y="440.00280690716016" as="geometry">
                        <mxPoint x="129" y="110" as="offset"/>
                    </mxGeometry>
                </mxCell>
                <mxCell id="61" style="edgeStyle=none;html=1;entryX=0.531;entryY=0.965;entryDx=0;entryDy=0;entryPerimeter=0;" parent="1" source="58" target="66" edge="1">
                    <mxGeometry relative="1" as="geometry"/>
                </mxCell>
                <mxCell id="58" value="Almacena datos modificados" style="whiteSpace=wrap;html=1;fillColor=#FFFFFF;fontColor=#000000;rounded=1;" parent="1" vertex="1">
                    <mxGeometry x="560" y="651.56" width="130" height="50" as="geometry"/>
                </mxCell>
                <mxCell id="63" value="Envia correo de confirmacion Cliente&amp;nbsp;" style="rounded=1;whiteSpace=wrap;html=1;fillColor=#FFFFFF;fontColor=#000000;" parent="1" vertex="1">
                    <mxGeometry x="560" y="720" width="110" height="40" as="geometry"/>
                </mxCell>
                <mxCell id="64" style="edgeStyle=none;html=1;entryX=0;entryY=0.5;entryDx=0;entryDy=0;exitX=0.25;exitY=0.5;exitDx=0;exitDy=0;exitPerimeter=0;" parent="1" source="66" target="63" edge="1">
                    <mxGeometry relative="1" as="geometry">
                        <Array as="points">
                            <mxPoint x="510" y="705"/>
                            <mxPoint x="510" y="740"/>
                        </Array>
                    </mxGeometry>
                </mxCell>
                <mxCell id="65" style="edgeStyle=none;html=1;entryX=1;entryY=0.5;entryDx=0;entryDy=0;exitX=0.633;exitY=0.313;exitDx=0;exitDy=0;exitPerimeter=0;" parent="1" source="66" target="27" edge="1">
                    <mxGeometry relative="1" as="geometry">
                        <mxPoint x="425" y="656.56" as="targetPoint"/>
                    </mxGeometry>
                </mxCell>
                <mxCell id="66" value="" style="shape=line;html=1;strokeWidth=6;strokeColor=#ff0000;rotation=-90;" parent="1" vertex="1">
                    <mxGeometry x="493.75" y="680" width="66.25" height="10" as="geometry"/>
                </mxCell>
                <mxCell id="68" style="edgeStyle=none;html=1;entryX=0;entryY=0.5;entryDx=0;entryDy=0;" edge="1" parent="1" source="67" target="39">
                    <mxGeometry relative="1" as="geometry">
                        <Array as="points">
                            <mxPoint x="300" y="610"/>
                            <mxPoint x="300" y="559"/>
                        </Array>
                    </mxGeometry>
                </mxCell>
                <mxCell id="67" value="Datos erroneos&amp;nbsp;" style="whiteSpace=wrap;html=1;fillColor=#FFFFFF;fontColor=#000000;rounded=1;" vertex="1" parent="1">
                    <mxGeometry x="325" y="592" width="120" height="45" as="geometry"/>
                </mxCell>
            </root>
        </mxGraphModel>
    </diagram>
</mxfile>